<mxfile host="app.diagrams.net" modified="2023-06-01T09:39:47.638Z" agent="Mozilla/5.0 (X11; Linux x86_64) AppleWebKit/537.36 (KHTML, like Gecko) Chrome/115.0.0.0 Safari/537.36 Edg/115.0.0.0" etag="RC4qfv2n4boUzxAxbtFE" version="21.3.4" type="github">
  <diagram name="Page-1" id="MsJg3K_YA5bQLi9zSaGn">
    <mxGraphModel dx="1006" dy="567" grid="1" gridSize="10" guides="1" tooltips="1" connect="1" arrows="1" fold="1" page="1" pageScale="1" pageWidth="850" pageHeight="1100" math="0" shadow="0">
      <root>
        <mxCell id="0" />
        <mxCell id="1" parent="0" />
        <mxCell id="J0Dk389Ax7h66783EIRo-17" style="edgeStyle=orthogonalEdgeStyle;rounded=0;orthogonalLoop=1;jettySize=auto;html=1;exitX=0;exitY=0.5;exitDx=0;exitDy=0;entryX=1;entryY=0.5;entryDx=0;entryDy=0;" parent="1" source="J0Dk389Ax7h66783EIRo-1" target="J0Dk389Ax7h66783EIRo-8" edge="1">
          <mxGeometry relative="1" as="geometry" />
        </mxCell>
        <mxCell id="J0Dk389Ax7h66783EIRo-18" style="edgeStyle=orthogonalEdgeStyle;rounded=0;orthogonalLoop=1;jettySize=auto;html=1;exitX=1;exitY=0.5;exitDx=0;exitDy=0;entryX=0;entryY=0.5;entryDx=0;entryDy=0;" parent="1" source="J0Dk389Ax7h66783EIRo-1" target="J0Dk389Ax7h66783EIRo-10" edge="1">
          <mxGeometry relative="1" as="geometry" />
        </mxCell>
        <mxCell id="J0Dk389Ax7h66783EIRo-19" style="edgeStyle=orthogonalEdgeStyle;rounded=0;orthogonalLoop=1;jettySize=auto;html=1;exitX=0.75;exitY=0;exitDx=0;exitDy=0;entryX=0.5;entryY=1;entryDx=0;entryDy=0;" parent="1" source="J0Dk389Ax7h66783EIRo-1" target="J0Dk389Ax7h66783EIRo-7" edge="1">
          <mxGeometry relative="1" as="geometry">
            <Array as="points">
              <mxPoint x="880" y="340" />
              <mxPoint x="880" y="305" />
              <mxPoint x="980" y="305" />
            </Array>
          </mxGeometry>
        </mxCell>
        <mxCell id="J0Dk389Ax7h66783EIRo-20" style="edgeStyle=orthogonalEdgeStyle;rounded=0;orthogonalLoop=1;jettySize=auto;html=1;exitX=0.5;exitY=0;exitDx=0;exitDy=0;entryX=0.5;entryY=1;entryDx=0;entryDy=0;" parent="1" source="J0Dk389Ax7h66783EIRo-1" target="J0Dk389Ax7h66783EIRo-6" edge="1">
          <mxGeometry relative="1" as="geometry">
            <Array as="points">
              <mxPoint x="795" y="360" />
              <mxPoint x="820" y="360" />
              <mxPoint x="820" y="305" />
              <mxPoint x="835" y="305" />
            </Array>
          </mxGeometry>
        </mxCell>
        <mxCell id="J0Dk389Ax7h66783EIRo-21" style="edgeStyle=orthogonalEdgeStyle;rounded=0;orthogonalLoop=1;jettySize=auto;html=1;exitX=0.25;exitY=0;exitDx=0;exitDy=0;entryX=0.5;entryY=1;entryDx=0;entryDy=0;" parent="1" source="J0Dk389Ax7h66783EIRo-1" target="J0Dk389Ax7h66783EIRo-5" edge="1">
          <mxGeometry relative="1" as="geometry">
            <Array as="points">
              <mxPoint x="780" y="340" />
              <mxPoint x="780" y="305" />
              <mxPoint x="725" y="305" />
            </Array>
          </mxGeometry>
        </mxCell>
        <mxCell id="J0Dk389Ax7h66783EIRo-22" style="edgeStyle=orthogonalEdgeStyle;rounded=0;orthogonalLoop=1;jettySize=auto;html=1;exitX=0;exitY=0;exitDx=0;exitDy=0;entryX=0.5;entryY=1;entryDx=0;entryDy=0;" parent="1" source="J0Dk389Ax7h66783EIRo-1" target="J0Dk389Ax7h66783EIRo-3" edge="1">
          <mxGeometry relative="1" as="geometry">
            <mxPoint x="640" y="280" as="targetPoint" />
          </mxGeometry>
        </mxCell>
        <mxCell id="J0Dk389Ax7h66783EIRo-26" style="edgeStyle=orthogonalEdgeStyle;rounded=0;orthogonalLoop=1;jettySize=auto;html=1;exitX=0.5;exitY=1;exitDx=0;exitDy=0;" parent="1" source="J0Dk389Ax7h66783EIRo-1" target="J0Dk389Ax7h66783EIRo-23" edge="1">
          <mxGeometry relative="1" as="geometry">
            <Array as="points">
              <mxPoint x="795" y="420" />
            </Array>
          </mxGeometry>
        </mxCell>
        <mxCell id="J0Dk389Ax7h66783EIRo-30" style="edgeStyle=orthogonalEdgeStyle;rounded=0;orthogonalLoop=1;jettySize=auto;html=1;" parent="1" source="J0Dk389Ax7h66783EIRo-1" target="J0Dk389Ax7h66783EIRo-28" edge="1">
          <mxGeometry relative="1" as="geometry">
            <Array as="points">
              <mxPoint x="795" y="420" />
              <mxPoint x="470" y="420" />
            </Array>
          </mxGeometry>
        </mxCell>
        <mxCell id="J0Dk389Ax7h66783EIRo-1" value="&lt;p data-darkreader-inline-color=&quot;&quot; data-darkreader-inline-bgcolor=&quot;&quot; data-darkreader-inline-bgimage=&quot;&quot; style=&quot;line-height: 1px; margin-bottom: 0cm; background: transparent; color: rgb(0, 0, 0); font-size: medium; text-align: start; --darkreader-inline-bgimage: initial; --darkreader-inline-bgcolor: transparent; --darkreader-inline-color: #e8e6e3;&quot;&gt;AUTHENTICATION&lt;/p&gt;" style="rounded=0;whiteSpace=wrap;html=1;" parent="1" vertex="1">
          <mxGeometry x="710" y="340" width="170" height="30" as="geometry" />
        </mxCell>
        <mxCell id="J0Dk389Ax7h66783EIRo-3" value="&lt;p data-darkreader-inline-color=&quot;&quot; data-darkreader-inline-bgcolor=&quot;&quot; data-darkreader-inline-bgimage=&quot;&quot; style=&quot;line-height: 1px; margin-bottom: 0cm; background: transparent; color: rgb(0, 0, 0); font-size: medium; text-align: start; --darkreader-inline-bgimage: initial; --darkreader-inline-bgcolor: transparent; --darkreader-inline-color: #e8e6e3;&quot;&gt;Username&lt;/p&gt;" style="ellipse;whiteSpace=wrap;html=1;" parent="1" vertex="1">
          <mxGeometry x="580" y="220" width="90" height="50" as="geometry" />
        </mxCell>
        <mxCell id="J0Dk389Ax7h66783EIRo-5" value="&lt;p data-darkreader-inline-color=&quot;&quot; data-darkreader-inline-bgcolor=&quot;&quot; data-darkreader-inline-bgimage=&quot;&quot; style=&quot;line-height: 1px; margin-bottom: 0cm; background: transparent; color: rgb(0, 0, 0); font-size: medium; text-align: start; --darkreader-inline-bgimage: initial; --darkreader-inline-bgcolor: transparent; --darkreader-inline-color: #e8e6e3;&quot;&gt;Password&lt;/p&gt;" style="ellipse;whiteSpace=wrap;html=1;" parent="1" vertex="1">
          <mxGeometry x="680" y="220" width="90" height="50" as="geometry" />
        </mxCell>
        <mxCell id="J0Dk389Ax7h66783EIRo-6" value="&lt;p data-darkreader-inline-color=&quot;&quot; data-darkreader-inline-bgcolor=&quot;&quot; data-darkreader-inline-bgimage=&quot;&quot; style=&quot;line-height: 1px; margin-bottom: 0cm; background: transparent; color: rgb(0, 0, 0); font-size: medium; text-align: start; --darkreader-inline-bgimage: initial; --darkreader-inline-bgcolor: transparent; --darkreader-inline-color: #e8e6e3;&quot;&gt;Account status&lt;/p&gt;" style="ellipse;whiteSpace=wrap;html=1;" parent="1" vertex="1">
          <mxGeometry x="780" y="220" width="110" height="50" as="geometry" />
        </mxCell>
        <mxCell id="J0Dk389Ax7h66783EIRo-7" value="&lt;p data-darkreader-inline-color=&quot;&quot; data-darkreader-inline-bgcolor=&quot;&quot; data-darkreader-inline-bgimage=&quot;&quot; style=&quot;line-height: 1px; margin-bottom: 0cm; background: transparent; color: rgb(0, 0, 0); font-size: medium; text-align: start; --darkreader-inline-bgimage: initial; --darkreader-inline-bgcolor: transparent; --darkreader-inline-color: #e8e6e3;&quot;&gt;Account created date&lt;/p&gt;" style="ellipse;whiteSpace=wrap;html=1;" parent="1" vertex="1">
          <mxGeometry x="900" y="220" width="160" height="50" as="geometry" />
        </mxCell>
        <mxCell id="J0Dk389Ax7h66783EIRo-8" value="&lt;p data-darkreader-inline-color=&quot;&quot; data-darkreader-inline-bgcolor=&quot;&quot; data-darkreader-inline-bgimage=&quot;&quot; style=&quot;line-height: 1px; margin-bottom: 0cm; background: transparent; color: rgb(0, 0, 0); font-size: medium; text-align: start; --darkreader-inline-bgimage: initial; --darkreader-inline-bgcolor: transparent; --darkreader-inline-color: #e8e6e3;&quot;&gt;Account type&lt;/p&gt;" style="ellipse;whiteSpace=wrap;html=1;" parent="1" vertex="1">
          <mxGeometry x="510" y="330" width="140" height="50" as="geometry" />
        </mxCell>
        <mxCell id="J0Dk389Ax7h66783EIRo-10" value="&lt;p data-darkreader-inline-color=&quot;&quot; data-darkreader-inline-bgcolor=&quot;&quot; data-darkreader-inline-bgimage=&quot;&quot; style=&quot;line-height: 1px; margin-bottom: 0cm; background: transparent; color: rgb(0, 0, 0); font-size: medium; text-align: start; --darkreader-inline-bgimage: initial; --darkreader-inline-bgcolor: transparent; --darkreader-inline-color: #e8e6e3;&quot;&gt;Last password&lt;/p&gt;" style="ellipse;whiteSpace=wrap;html=1;" parent="1" vertex="1">
          <mxGeometry x="930" y="330" width="130" height="50" as="geometry" />
        </mxCell>
        <mxCell id="J0Dk389Ax7h66783EIRo-15" value="&lt;p data-darkreader-inline-color=&quot;&quot; data-darkreader-inline-bgcolor=&quot;&quot; data-darkreader-inline-bgimage=&quot;&quot; style=&quot;line-height: 1px; margin-bottom: 0cm; background: transparent; color: rgb(0, 0, 0); font-size: medium; text-align: start; --darkreader-inline-bgimage: initial; --darkreader-inline-bgcolor: transparent; --darkreader-inline-color: #e8e6e3;&quot;&gt;active, locked&lt;/p&gt;" style="text;html=1;align=center;verticalAlign=middle;resizable=0;points=[];autosize=1;strokeColor=none;fillColor=none;" parent="1" vertex="1">
          <mxGeometry x="765" y="190" width="120" height="30" as="geometry" />
        </mxCell>
        <mxCell id="J0Dk389Ax7h66783EIRo-16" value="&lt;p data-darkreader-inline-color=&quot;&quot; data-darkreader-inline-bgcolor=&quot;&quot; data-darkreader-inline-bgimage=&quot;&quot; style=&quot;line-height: 1px; margin-bottom: 0cm; background: transparent; color: rgb(0, 0, 0); font-size: medium; text-align: start; --darkreader-inline-bgimage: initial; --darkreader-inline-bgcolor: transparent; --darkreader-inline-color: #e8e6e3;&quot;&gt;member, staff, administrator&lt;/p&gt;" style="text;html=1;align=center;verticalAlign=middle;resizable=0;points=[];autosize=1;strokeColor=none;fillColor=none;" parent="1" vertex="1">
          <mxGeometry x="480" y="300" width="220" height="30" as="geometry" />
        </mxCell>
        <mxCell id="J0Dk389Ax7h66783EIRo-24" style="edgeStyle=orthogonalEdgeStyle;rounded=0;orthogonalLoop=1;jettySize=auto;html=1;exitX=0.5;exitY=1;exitDx=0;exitDy=0;entryX=0.5;entryY=0;entryDx=0;entryDy=0;" parent="1" source="J0Dk389Ax7h66783EIRo-23" target="J0Dk389Ax7h66783EIRo-25" edge="1">
          <mxGeometry relative="1" as="geometry">
            <mxPoint x="1080" y="550" as="targetPoint" />
          </mxGeometry>
        </mxCell>
        <mxCell id="J0Dk389Ax7h66783EIRo-23" value="Login" style="rhombus;whiteSpace=wrap;html=1;" parent="1" vertex="1">
          <mxGeometry x="1040" y="380" width="80" height="80" as="geometry" />
        </mxCell>
        <mxCell id="J0Dk389Ax7h66783EIRo-34" style="edgeStyle=orthogonalEdgeStyle;rounded=0;orthogonalLoop=1;jettySize=auto;html=1;exitX=1;exitY=0;exitDx=0;exitDy=0;entryX=0;entryY=0.5;entryDx=0;entryDy=0;" parent="1" source="J0Dk389Ax7h66783EIRo-25" target="J0Dk389Ax7h66783EIRo-32" edge="1">
          <mxGeometry relative="1" as="geometry">
            <Array as="points">
              <mxPoint x="990" y="540" />
            </Array>
          </mxGeometry>
        </mxCell>
        <mxCell id="J0Dk389Ax7h66783EIRo-41" style="edgeStyle=orthogonalEdgeStyle;rounded=0;orthogonalLoop=1;jettySize=auto;html=1;exitX=1;exitY=0.5;exitDx=0;exitDy=0;entryX=0;entryY=0.5;entryDx=0;entryDy=0;" parent="1" source="J0Dk389Ax7h66783EIRo-25" target="J0Dk389Ax7h66783EIRo-35" edge="1">
          <mxGeometry relative="1" as="geometry" />
        </mxCell>
        <mxCell id="J0Dk389Ax7h66783EIRo-42" style="edgeStyle=orthogonalEdgeStyle;rounded=0;orthogonalLoop=1;jettySize=auto;html=1;exitX=1;exitY=1;exitDx=0;exitDy=0;entryX=0.5;entryY=0;entryDx=0;entryDy=0;" parent="1" source="J0Dk389Ax7h66783EIRo-25" target="J0Dk389Ax7h66783EIRo-36" edge="1">
          <mxGeometry relative="1" as="geometry" />
        </mxCell>
        <mxCell id="qj-I0tKyLUNjHVOXgtlq-4" style="edgeStyle=orthogonalEdgeStyle;rounded=0;orthogonalLoop=1;jettySize=auto;html=1;exitX=0;exitY=0;exitDx=0;exitDy=0;entryX=0.5;entryY=1;entryDx=0;entryDy=0;" edge="1" parent="1" source="J0Dk389Ax7h66783EIRo-25" target="qj-I0tKyLUNjHVOXgtlq-1">
          <mxGeometry relative="1" as="geometry" />
        </mxCell>
        <mxCell id="qj-I0tKyLUNjHVOXgtlq-6" style="edgeStyle=orthogonalEdgeStyle;rounded=0;orthogonalLoop=1;jettySize=auto;html=1;exitX=0.5;exitY=1;exitDx=0;exitDy=0;entryX=0.5;entryY=0;entryDx=0;entryDy=0;" edge="1" parent="1" source="J0Dk389Ax7h66783EIRo-25" target="qj-I0tKyLUNjHVOXgtlq-3">
          <mxGeometry relative="1" as="geometry" />
        </mxCell>
        <mxCell id="qj-I0tKyLUNjHVOXgtlq-8" style="edgeStyle=orthogonalEdgeStyle;rounded=0;orthogonalLoop=1;jettySize=auto;html=1;exitX=0.25;exitY=1;exitDx=0;exitDy=0;entryX=0.5;entryY=0;entryDx=0;entryDy=0;" edge="1" parent="1" target="qj-I0tKyLUNjHVOXgtlq-7">
          <mxGeometry relative="1" as="geometry">
            <mxPoint x="900" y="590" as="sourcePoint" />
            <mxPoint x="837.5" y="700" as="targetPoint" />
            <Array as="points">
              <mxPoint x="900" y="610" />
              <mxPoint x="890" y="610" />
            </Array>
          </mxGeometry>
        </mxCell>
        <mxCell id="qj-I0tKyLUNjHVOXgtlq-10" style="edgeStyle=orthogonalEdgeStyle;rounded=0;orthogonalLoop=1;jettySize=auto;html=1;exitX=0.25;exitY=0;exitDx=0;exitDy=0;" edge="1" parent="1" source="J0Dk389Ax7h66783EIRo-25" target="qj-I0tKyLUNjHVOXgtlq-9">
          <mxGeometry relative="1" as="geometry">
            <Array as="points">
              <mxPoint x="920" y="560" />
            </Array>
          </mxGeometry>
        </mxCell>
        <mxCell id="qj-I0tKyLUNjHVOXgtlq-12" style="edgeStyle=orthogonalEdgeStyle;rounded=0;orthogonalLoop=1;jettySize=auto;html=1;exitX=0;exitY=1;exitDx=0;exitDy=0;entryX=0.5;entryY=0;entryDx=0;entryDy=0;" edge="1" parent="1" source="J0Dk389Ax7h66783EIRo-25" target="qj-I0tKyLUNjHVOXgtlq-2">
          <mxGeometry relative="1" as="geometry" />
        </mxCell>
        <mxCell id="J0Dk389Ax7h66783EIRo-25" value="&lt;p data-darkreader-inline-color=&quot;&quot; data-darkreader-inline-bgcolor=&quot;&quot; data-darkreader-inline-bgimage=&quot;&quot; style=&quot;line-height: 1px; margin-bottom: 0cm; background: transparent; color: rgb(0, 0, 0); font-size: medium; text-align: start; --darkreader-inline-bgimage: initial; --darkreader-inline-bgcolor: transparent; --darkreader-inline-color: #e8e6e3;&quot;&gt;MEMBER&lt;/p&gt;" style="whiteSpace=wrap;html=1;" parent="1" vertex="1">
          <mxGeometry x="870" y="560" width="120" height="30" as="geometry" />
        </mxCell>
        <mxCell id="J0Dk389Ax7h66783EIRo-27" style="edgeStyle=orthogonalEdgeStyle;rounded=0;orthogonalLoop=1;jettySize=auto;html=1;exitX=0.5;exitY=1;exitDx=0;exitDy=0;entryX=0.5;entryY=0;entryDx=0;entryDy=0;" parent="1" source="J0Dk389Ax7h66783EIRo-28" target="J0Dk389Ax7h66783EIRo-29" edge="1">
          <mxGeometry relative="1" as="geometry">
            <mxPoint x="620" y="550" as="targetPoint" />
          </mxGeometry>
        </mxCell>
        <mxCell id="J0Dk389Ax7h66783EIRo-28" value="Login" style="rhombus;whiteSpace=wrap;html=1;" parent="1" vertex="1">
          <mxGeometry x="440" y="380" width="80" height="80" as="geometry" />
        </mxCell>
        <mxCell id="qj-I0tKyLUNjHVOXgtlq-20" style="edgeStyle=orthogonalEdgeStyle;rounded=0;orthogonalLoop=1;jettySize=auto;html=1;exitX=0.25;exitY=0;exitDx=0;exitDy=0;entryX=1.053;entryY=0.294;entryDx=0;entryDy=0;entryPerimeter=0;" edge="1" parent="1" source="J0Dk389Ax7h66783EIRo-29" target="qj-I0tKyLUNjHVOXgtlq-16">
          <mxGeometry relative="1" as="geometry" />
        </mxCell>
        <mxCell id="qj-I0tKyLUNjHVOXgtlq-21" style="edgeStyle=orthogonalEdgeStyle;rounded=0;orthogonalLoop=1;jettySize=auto;html=1;exitX=0;exitY=0.5;exitDx=0;exitDy=0;entryX=1;entryY=0.5;entryDx=0;entryDy=0;" edge="1" parent="1" source="J0Dk389Ax7h66783EIRo-29" target="qj-I0tKyLUNjHVOXgtlq-13">
          <mxGeometry relative="1" as="geometry" />
        </mxCell>
        <mxCell id="qj-I0tKyLUNjHVOXgtlq-22" style="edgeStyle=orthogonalEdgeStyle;rounded=0;orthogonalLoop=1;jettySize=auto;html=1;exitX=0;exitY=1;exitDx=0;exitDy=0;entryX=1;entryY=0;entryDx=0;entryDy=0;" edge="1" parent="1" source="J0Dk389Ax7h66783EIRo-29" target="qj-I0tKyLUNjHVOXgtlq-14">
          <mxGeometry relative="1" as="geometry">
            <Array as="points">
              <mxPoint x="560" y="600" />
              <mxPoint x="475" y="600" />
            </Array>
          </mxGeometry>
        </mxCell>
        <mxCell id="qj-I0tKyLUNjHVOXgtlq-23" style="edgeStyle=orthogonalEdgeStyle;rounded=0;orthogonalLoop=1;jettySize=auto;html=1;exitX=0.25;exitY=1;exitDx=0;exitDy=0;entryX=0.5;entryY=0;entryDx=0;entryDy=0;" edge="1" parent="1" source="J0Dk389Ax7h66783EIRo-29" target="qj-I0tKyLUNjHVOXgtlq-15">
          <mxGeometry relative="1" as="geometry" />
        </mxCell>
        <mxCell id="qj-I0tKyLUNjHVOXgtlq-24" style="edgeStyle=orthogonalEdgeStyle;rounded=0;orthogonalLoop=1;jettySize=auto;html=1;exitX=0.75;exitY=1;exitDx=0;exitDy=0;entryX=0.5;entryY=0;entryDx=0;entryDy=0;" edge="1" parent="1" source="J0Dk389Ax7h66783EIRo-29" target="qj-I0tKyLUNjHVOXgtlq-19">
          <mxGeometry relative="1" as="geometry" />
        </mxCell>
        <mxCell id="qj-I0tKyLUNjHVOXgtlq-25" style="edgeStyle=orthogonalEdgeStyle;rounded=0;orthogonalLoop=1;jettySize=auto;html=1;exitX=1;exitY=0.75;exitDx=0;exitDy=0;entryX=0;entryY=0;entryDx=0;entryDy=0;" edge="1" parent="1" source="J0Dk389Ax7h66783EIRo-29" target="qj-I0tKyLUNjHVOXgtlq-18">
          <mxGeometry relative="1" as="geometry" />
        </mxCell>
        <mxCell id="qj-I0tKyLUNjHVOXgtlq-26" style="edgeStyle=orthogonalEdgeStyle;rounded=0;orthogonalLoop=1;jettySize=auto;html=1;exitX=0.75;exitY=0;exitDx=0;exitDy=0;entryX=0;entryY=0.5;entryDx=0;entryDy=0;" edge="1" parent="1" source="J0Dk389Ax7h66783EIRo-29" target="qj-I0tKyLUNjHVOXgtlq-17">
          <mxGeometry relative="1" as="geometry" />
        </mxCell>
        <mxCell id="J0Dk389Ax7h66783EIRo-29" value="&lt;p data-darkreader-inline-color=&quot;&quot; data-darkreader-inline-bgcolor=&quot;&quot; data-darkreader-inline-bgimage=&quot;&quot; style=&quot;line-height: 1px; margin-bottom: 0cm; background: transparent; color: rgb(0, 0, 0); font-size: medium; text-align: start; --darkreader-inline-bgimage: initial; --darkreader-inline-bgcolor: transparent; --darkreader-inline-color: #e8e6e3;&quot;&gt;STAFF&lt;/p&gt;" style="whiteSpace=wrap;html=1;" parent="1" vertex="1">
          <mxGeometry x="560" y="560" width="120" height="30" as="geometry" />
        </mxCell>
        <mxCell id="J0Dk389Ax7h66783EIRo-32" value="&lt;p data-darkreader-inline-color=&quot;&quot; data-darkreader-inline-bgcolor=&quot;&quot; data-darkreader-inline-bgimage=&quot;&quot; style=&quot;line-height: 1px; margin-bottom: 0cm; background: transparent; color: rgb(0, 0, 0); font-size: medium; text-align: start; --darkreader-inline-bgimage: initial; --darkreader-inline-bgcolor: transparent; --darkreader-inline-color: #e8e6e3;&quot;&gt;&lt;u&gt;Member ID&lt;/u&gt;&lt;/p&gt;" style="ellipse;whiteSpace=wrap;html=1;" parent="1" vertex="1">
          <mxGeometry x="1020" y="520" width="110" height="40" as="geometry" />
        </mxCell>
        <mxCell id="J0Dk389Ax7h66783EIRo-35" value="&lt;p data-darkreader-inline-color=&quot;&quot; data-darkreader-inline-bgcolor=&quot;&quot; data-darkreader-inline-bgimage=&quot;&quot; style=&quot;line-height: 1px; margin-bottom: 0cm; background: transparent; color: rgb(0, 0, 0); text-align: start; --darkreader-inline-bgimage: initial; --darkreader-inline-bgcolor: transparent; --darkreader-inline-color: #e8e6e3;&quot;&gt;&lt;font style=&quot;font-size: 12px;&quot;&gt;Name&lt;/font&gt;&lt;/p&gt;" style="ellipse;whiteSpace=wrap;html=1;" parent="1" vertex="1">
          <mxGeometry x="1120" y="570" width="80" height="30" as="geometry" />
        </mxCell>
        <mxCell id="J0Dk389Ax7h66783EIRo-43" style="edgeStyle=orthogonalEdgeStyle;rounded=0;orthogonalLoop=1;jettySize=auto;html=1;exitX=1;exitY=0;exitDx=0;exitDy=0;entryX=0;entryY=0.5;entryDx=0;entryDy=0;" parent="1" source="J0Dk389Ax7h66783EIRo-36" edge="1">
          <mxGeometry relative="1" as="geometry">
            <mxPoint x="1170" y="645" as="targetPoint" />
          </mxGeometry>
        </mxCell>
        <mxCell id="J0Dk389Ax7h66783EIRo-44" style="edgeStyle=orthogonalEdgeStyle;rounded=0;orthogonalLoop=1;jettySize=auto;html=1;exitX=1;exitY=0.5;exitDx=0;exitDy=0;entryX=0;entryY=0.5;entryDx=0;entryDy=0;" parent="1" source="J0Dk389Ax7h66783EIRo-36" target="J0Dk389Ax7h66783EIRo-39" edge="1">
          <mxGeometry relative="1" as="geometry" />
        </mxCell>
        <mxCell id="J0Dk389Ax7h66783EIRo-45" style="edgeStyle=orthogonalEdgeStyle;rounded=0;orthogonalLoop=1;jettySize=auto;html=1;exitX=1;exitY=1;exitDx=0;exitDy=0;entryX=0.5;entryY=0;entryDx=0;entryDy=0;" parent="1" source="J0Dk389Ax7h66783EIRo-36" target="J0Dk389Ax7h66783EIRo-37" edge="1">
          <mxGeometry relative="1" as="geometry" />
        </mxCell>
        <mxCell id="J0Dk389Ax7h66783EIRo-46" style="edgeStyle=orthogonalEdgeStyle;rounded=0;orthogonalLoop=1;jettySize=auto;html=1;exitX=0.5;exitY=1;exitDx=0;exitDy=0;entryX=0.5;entryY=0;entryDx=0;entryDy=0;" parent="1" source="J0Dk389Ax7h66783EIRo-36" target="J0Dk389Ax7h66783EIRo-38" edge="1">
          <mxGeometry relative="1" as="geometry" />
        </mxCell>
        <mxCell id="J0Dk389Ax7h66783EIRo-36" value="&lt;p data-darkreader-inline-color=&quot;&quot; data-darkreader-inline-bgcolor=&quot;&quot; data-darkreader-inline-bgimage=&quot;&quot; style=&quot;line-height: 1px; margin-bottom: 0cm; background: transparent; color: rgb(0, 0, 0); text-align: start; --darkreader-inline-bgimage: initial; --darkreader-inline-bgcolor: transparent; --darkreader-inline-color: #e8e6e3;&quot;&gt;&lt;font style=&quot;font-size: 12px;&quot;&gt;Address&lt;/font&gt;&lt;/p&gt;" style="ellipse;whiteSpace=wrap;html=1;" parent="1" vertex="1">
          <mxGeometry x="1045" y="640" width="70" height="40" as="geometry" />
        </mxCell>
        <mxCell id="J0Dk389Ax7h66783EIRo-37" value="city" style="ellipse;whiteSpace=wrap;html=1;" parent="1" vertex="1">
          <mxGeometry x="1105" y="700" width="50" height="30" as="geometry" />
        </mxCell>
        <mxCell id="J0Dk389Ax7h66783EIRo-38" value="street" style="ellipse;whiteSpace=wrap;html=1;" parent="1" vertex="1">
          <mxGeometry x="1030" y="700" width="70" height="30" as="geometry" />
        </mxCell>
        <mxCell id="J0Dk389Ax7h66783EIRo-39" value="postal-aode" style="ellipse;whiteSpace=wrap;html=1;" parent="1" vertex="1">
          <mxGeometry x="1160" y="670" width="80" height="40" as="geometry" />
        </mxCell>
        <mxCell id="J0Dk389Ax7h66783EIRo-40" value="state" style="ellipse;whiteSpace=wrap;html=1;" parent="1" vertex="1">
          <mxGeometry x="1170" y="630" width="50" height="30" as="geometry" />
        </mxCell>
        <mxCell id="qj-I0tKyLUNjHVOXgtlq-1" value="&lt;p data-darkreader-inline-color=&quot;&quot; data-darkreader-inline-bgcolor=&quot;&quot; data-darkreader-inline-bgimage=&quot;&quot; style=&quot;line-height: 1px; margin-bottom: 0cm; background: transparent; color: rgb(0, 0, 0); text-align: start; --darkreader-inline-bgimage: initial; --darkreader-inline-bgcolor: transparent; --darkreader-inline-color: #e8e6e3;&quot;&gt;&lt;font style=&quot;font-size: 12px;&quot;&gt;Email&lt;/font&gt;&lt;/p&gt;" style="ellipse;whiteSpace=wrap;html=1;" vertex="1" parent="1">
          <mxGeometry x="830" y="510" width="70" height="30" as="geometry" />
        </mxCell>
        <mxCell id="qj-I0tKyLUNjHVOXgtlq-2" value="DOF" style="ellipse;whiteSpace=wrap;html=1;" vertex="1" parent="1">
          <mxGeometry x="800" y="660" width="70" height="30" as="geometry" />
        </mxCell>
        <mxCell id="qj-I0tKyLUNjHVOXgtlq-3" value="&lt;p style=&quot;line-height: 100%; margin-bottom: 0cm&quot;&gt;Phone_no&lt;/p&gt;" style="ellipse;whiteSpace=wrap;html=1;" vertex="1" parent="1">
          <mxGeometry x="970" y="675" width="70" height="30" as="geometry" />
        </mxCell>
        <mxCell id="qj-I0tKyLUNjHVOXgtlq-7" value="&lt;p data-darkreader-inline-color=&quot;&quot; data-darkreader-inline-bgcolor=&quot;&quot; data-darkreader-inline-bgimage=&quot;&quot; style=&quot;line-height: 1px; margin-bottom: 0cm; background: transparent; color: rgb(0, 0, 0); text-align: start; --darkreader-inline-bgimage: initial; --darkreader-inline-bgcolor: transparent; --darkreader-inline-color: #e8e6e3;&quot;&gt;&lt;font style=&quot;font-size: 12px;&quot;&gt;Membership status&lt;/font&gt;&lt;/p&gt;" style="ellipse;whiteSpace=wrap;html=1;" vertex="1" parent="1">
          <mxGeometry x="830" y="700" width="120" height="50" as="geometry" />
        </mxCell>
        <mxCell id="qj-I0tKyLUNjHVOXgtlq-9" value="&lt;p style=&quot;line-height: 100%; margin-bottom: 0cm&quot;&gt;&#xa;Total borrowed books&lt;/p&gt;&#xa;&#xa;" style="ellipse;whiteSpace=wrap;html=1;" vertex="1" parent="1">
          <mxGeometry x="860" y="460" width="120" height="30" as="geometry" />
        </mxCell>
        <mxCell id="qj-I0tKyLUNjHVOXgtlq-13" value="&lt;p style=&quot;line-height: 100%; margin-bottom: 0cm&quot;&gt;Phone_no&lt;/p&gt;" style="ellipse;whiteSpace=wrap;html=1;" vertex="1" parent="1">
          <mxGeometry x="420" y="560" width="70" height="30" as="geometry" />
        </mxCell>
        <mxCell id="qj-I0tKyLUNjHVOXgtlq-14" value="&lt;p data-darkreader-inline-color=&quot;&quot; data-darkreader-inline-bgcolor=&quot;&quot; data-darkreader-inline-bgimage=&quot;&quot; style=&quot;line-height: 1px; margin-bottom: 0cm; background: transparent; color: rgb(0, 0, 0); font-size: medium; text-align: start; --darkreader-inline-bgimage: initial; --darkreader-inline-bgcolor: transparent; --darkreader-inline-color: #e8e6e3;&quot;&gt;&lt;u&gt;Staff_ID&lt;/u&gt;&lt;/p&gt;" style="ellipse;whiteSpace=wrap;html=1;" vertex="1" parent="1">
          <mxGeometry x="390" y="620" width="100" height="30" as="geometry" />
        </mxCell>
        <mxCell id="qj-I0tKyLUNjHVOXgtlq-15" value="&lt;p data-darkreader-inline-color=&quot;&quot; data-darkreader-inline-bgcolor=&quot;&quot; data-darkreader-inline-bgimage=&quot;&quot; style=&quot;line-height: 1px; margin-bottom: 0cm; background: transparent; color: rgb(0, 0, 0); text-align: start; --darkreader-inline-bgimage: initial; --darkreader-inline-bgcolor: transparent; --darkreader-inline-color: #e8e6e3;&quot;&gt;&lt;font style=&quot;font-size: 12px;&quot;&gt;Name&lt;/font&gt;&lt;/p&gt;" style="ellipse;whiteSpace=wrap;html=1;" vertex="1" parent="1">
          <mxGeometry x="520" y="620" width="80" height="30" as="geometry" />
        </mxCell>
        <mxCell id="qj-I0tKyLUNjHVOXgtlq-16" value="&lt;p data-darkreader-inline-color=&quot;&quot; data-darkreader-inline-bgcolor=&quot;&quot; data-darkreader-inline-bgimage=&quot;&quot; style=&quot;line-height: 1px; margin-bottom: 0cm; background: transparent; color: rgb(0, 0, 0); text-align: start; --darkreader-inline-bgimage: initial; --darkreader-inline-bgcolor: transparent; --darkreader-inline-color: #e8e6e3;&quot;&gt;&lt;font style=&quot;font-size: 12px;&quot;&gt;Email&lt;/font&gt;&lt;/p&gt;" style="ellipse;whiteSpace=wrap;html=1;" vertex="1" parent="1">
          <mxGeometry x="500" y="530" width="70" height="30" as="geometry" />
        </mxCell>
        <mxCell id="qj-I0tKyLUNjHVOXgtlq-17" value="&lt;p style=&quot;line-height: 100%; margin-bottom: 0cm&quot;&gt;Position&lt;/p&gt;" style="ellipse;whiteSpace=wrap;html=1;" vertex="1" parent="1">
          <mxGeometry x="670" y="520" width="70" height="30" as="geometry" />
        </mxCell>
        <mxCell id="qj-I0tKyLUNjHVOXgtlq-18" value="&lt;p style=&quot;line-height: 100%; margin-bottom: 0cm&quot;&gt;&#xa;Hire date&lt;/p&gt;&#xa;&#xa;" style="ellipse;whiteSpace=wrap;html=1;" vertex="1" parent="1">
          <mxGeometry x="690" y="580" width="70" height="30" as="geometry" />
        </mxCell>
        <mxCell id="qj-I0tKyLUNjHVOXgtlq-19" value="&lt;p style=&quot;line-height: 100%; margin-bottom: 0cm&quot;&gt;&#xa;Salary&lt;/p&gt;&#xa;&#xa;" style="ellipse;whiteSpace=wrap;html=1;" vertex="1" parent="1">
          <mxGeometry x="660" y="630" width="60" height="30" as="geometry" />
        </mxCell>
        <mxCell id="qj-I0tKyLUNjHVOXgtlq-27" value="&lt;b&gt;&lt;font style=&quot;font-size: 24px;&quot;&gt;ER Digram&lt;/font&gt;&lt;/b&gt;" style="text;html=1;align=center;verticalAlign=middle;resizable=0;points=[];autosize=1;strokeColor=none;fillColor=none;" vertex="1" parent="1">
          <mxGeometry x="740" y="113" width="150" height="40" as="geometry" />
        </mxCell>
      </root>
    </mxGraphModel>
  </diagram>
</mxfile>
